<?xml version="1.0" standalone="no"?>
<!DOCTYPE svg PUBLIC "-//W3C//DTD SVG 20010904//EN"
 "http://www.w3.org/TR/2001/REC-SVG-20010904/DTD/svg10.dtd">
<svg version="1.0" xmlns="http://www.w3.org/2000/svg"
 width="1000.000000pt" height="1000.000000pt" viewBox="0 0 1000.000000 1000.000000"
 preserveAspectRatio="xMidYMid meet">
<metadata>
Created by potrace 1.16, written by Peter Selinger 2001-2019
</metadata>
<g transform="translate(0.000000,1000.000000) scale(0.100000,-0.100000)"
fill="#000000" stroke="none">
<path d="M3490 7969 c0 -11 -4 -18 -8 -15 -9 5 -3038 -786 -3048 -797 -5 -5
1263 -4857 1272 -4866 5 -5 -14 -10 1356 350 l1217 319 689 0 688 0 1118 -401
c615 -220 1120 -398 1123 -395 5 5 1688 4697 1695 4724 2 10 -422 166 -1417
523 -1692 606 -1535 548 -1535 565 0 12 -244 14 -1575 14 l-1575 0 0 -21z
m2650 -2494 l0 -2015 -740 0 c-407 0 -740 3 -740 6 0 3 -151 581 -335 1283
l-335 1278 0 731 0 732 1075 0 1075 0 0 -2015z m-3011 1823 c7 -24 236 -898
510 -1943 437 -1664 497 -1901 482 -1907 -44 -20 -2045 -538 -2051 -531 -8 9
-1022 3874 -1018 3878 2 2 2038 540 2059 544 4 0 12 -18 18 -41z m4814 -345
c548 -197 997 -362 997 -367 0 -13 -1341 -3759 -1349 -3768 -4 -4 -218 68
-476 161 l-470 168 -3 1678 -2 1677 136 381 c76 210 141 392 145 405 5 12 12
22 16 22 5 0 457 -161 1006 -357z"/>
<path d="M4858 6894 c-104 -19 -252 -67 -315 -104 -74 -42 -88 -68 -87 -156 1
-81 17 -130 45 -137 10 -3 67 18 131 49 141 67 243 94 358 94 111 0 179 -13
257 -49 153 -72 233 -220 233 -431 0 -164 -43 -276 -140 -363 -71 -64 -139
-88 -281 -97 -131 -9 -170 -23 -189 -70 -20 -47 -7 -618 14 -639 34 -34 229
-32 264 2 10 11 15 68 19 243 4 150 10 232 17 236 6 4 24 8 40 8 98 0 271 72
365 150 205 171 286 528 186 825 -79 238 -270 393 -540 440 -106 18 -273 18
-377 -1z"/>
<path d="M4897 4719 c-56 -29 -71 -72 -71 -194 -1 -170 40 -214 198 -215 86 0
150 22 173 59 37 59 36 257 -2 314 -25 39 -83 57 -178 57 -62 -1 -91 -6 -120
-21z"/>
<path d="M2350 6543 c-38 -5 -213 -49 -245 -62 -66 -28 -215 -106 -215 -113 0
-4 -5 -8 -11 -8 -21 0 -125 -83 -157 -126 -30 -38 -32 -46 -27 -97 3 -30 12
-68 20 -84 8 -15 15 -32 15 -38 1 -20 37 -52 56 -51 25 2 57 21 93 54 75 71
100 92 110 92 6 0 11 3 11 8 0 4 8 12 18 17 156 84 262 117 374 116 73 0 183
-25 209 -48 8 -7 19 -13 22 -13 10 0 90 -81 118 -120 60 -85 103 -240 96 -349
-6 -91 -15 -142 -29 -159 -6 -7 -18 -25 -27 -42 -25 -45 -100 -120 -121 -120
-5 0 -10 -4 -10 -10 0 -5 -9 -10 -20 -10 -11 0 -20 -4 -20 -8 0 -4 -32 -16
-70 -26 -123 -31 -174 -66 -179 -123 -2 -32 82 -371 102 -408 6 -11 21 -60 33
-109 25 -98 28 -103 64 -107 72 -8 231 42 244 78 6 15 -9 92 -63 309 -40 164
-40 169 19 180 16 4 30 10 30 15 0 5 8 9 18 9 9 0 28 9 42 20 14 11 31 20 38
20 6 0 12 4 12 9 0 5 8 12 18 15 18 6 122 100 122 111 0 4 15 25 34 48 18 23
37 53 41 67 4 14 11 30 15 35 7 10 28 92 38 145 6 37 6 198 -1 251 -6 54 -24
122 -42 164 -7 17 -21 50 -31 75 -10 25 -21 47 -24 50 -3 3 -14 23 -25 44 -21
42 -131 158 -180 192 -39 26 -138 74 -164 79 -12 2 -25 7 -31 10 -24 15 -241
27 -320 18z"/>
<path d="M2739 4406 c-93 -26 -146 -60 -155 -101 -16 -71 -1 -159 43 -251 28
-60 55 -82 110 -89 43 -5 190 31 211 52 7 7 17 13 21 13 14 0 40 57 41 91 3
83 -34 210 -77 263 -36 44 -93 51 -194 22z"/>
<path d="M7218 6485 c-2 -2 -15 -6 -28 -8 -32 -5 -62 -18 -75 -32 -17 -18 -46
-81 -51 -111 -23 -133 -18 -138 106 -127 92 9 266 9 316 1 45 -7 186 -59 205
-75 8 -7 21 -13 27 -13 7 0 12 -4 12 -10 0 -5 5 -10 11 -10 27 0 139 -138 149
-182 1 -4 8 -27 15 -50 21 -72 12 -191 -23 -290 -37 -105 -69 -158 -132 -220
-71 -69 -146 -100 -250 -104 -71 -3 -97 1 -153 21 -38 14 -95 27 -128 30 -89
6 -97 -4 -173 -225 -98 -287 -131 -392 -128 -408 5 -21 24 -38 52 -47 14 -4
34 -13 45 -19 31 -19 130 -39 157 -33 18 5 28 18 37 49 7 24 21 57 30 73 10
17 39 91 65 165 27 74 55 140 63 147 11 8 23 9 41 2 53 -20 204 -30 270 -17
76 14 87 16 90 19 1 1 7 3 12 4 6 1 12 4 15 5 3 1 8 3 13 4 25 7 92 39 92 45
0 3 12 12 28 18 27 13 142 115 142 127 0 5 19 31 45 60 15 17 85 155 102 201
13 37 25 85 40 160 8 42 8 204 0 240 -4 17 -9 44 -12 60 -6 31 -21 69 -36 95
-5 8 -12 22 -16 30 -41 94 -221 265 -312 297 -9 4 -23 11 -31 18 -29 23 -196
77 -295 95 -87 16 -325 27 -337 15z"/>
<path d="M6834 4412 c-33 -3 -77 -43 -89 -81 -3 -11 -10 -21 -14 -21 -16 0
-65 -203 -52 -216 3 -3 6 -10 6 -15 0 -4 14 -24 32 -42 57 -61 220 -106 275
-76 32 17 65 53 73 80 4 13 12 30 18 37 18 22 45 144 41 181 -7 53 -53 95
-139 126 -75 28 -100 32 -151 27z"/>
</g>
</svg>
