<?xml version="1.0" standalone="no"?>
<!DOCTYPE svg PUBLIC "-//W3C//DTD SVG 20010904//EN"
 "http://www.w3.org/TR/2001/REC-SVG-20010904/DTD/svg10.dtd">
<svg version="1.0" xmlns="http://www.w3.org/2000/svg"
 width="1000.000000pt" height="1000.000000pt" viewBox="0 0 1000.000000 1000.000000"
 preserveAspectRatio="xMidYMid meet">
<metadata>
Created by potrace 1.16, written by Peter Selinger 2001-2019
</metadata>
<g transform="translate(0.000000,1000.000000) scale(0.100000,-0.100000)"
fill="#000000" stroke="none">
<path d="M1490 8080 c-41 -11 -118 -41 -170 -67 -81 -40 -109 -62 -195 -148
-86 -86 -108 -114 -148 -195 -26 -52 -56 -131 -67 -174 -20 -78 -20 -120 -20
-2496 0 -2376 0 -2418 20 -2496 71 -285 298 -511 584 -584 79 -20 106 -20
3516 -20 3410 0 3437 0 3516 20 288 73 511 296 584 584 20 78 20 108 20 2496
0 2376 0 2418 -20 2496 -11 43 -41 122 -67 174 -40 81 -62 109 -148 195 -86
86 -114 108 -195 148 -52 26 -131 56 -174 67 -78 20 -122 20 -3520 19 -3362 0
-3443 -1 -3516 -19z m5070 -2325 c-850 -850 -1545 -1545 -1545 -1545 0 0 -695
695 -1545 1545 l-1545 1545 3090 0 3090 0 -1545 -1545z m-2010 -2212 c134 -89
263 -132 426 -140 178 -9 339 34 479 127 39 26 561 541 1467 1447 l1408 1408
0 -1842 0 -1843 -3320 0 -3320 0 0 1842 0 1843 1408 -1406 c774 -774 1427
-1420 1452 -1436z"/>
</g>
</svg>
