<svg aria-hidden="true" style="position: absolute; width: 0; height: 0; overflow: hidden;" version="1.1" xmlns="http://www.w3.org/2000/svg" xmlns:xlink="http://www.w3.org/1999/xlink">
<defs>
<symbol id="icon-pointer_down_black" viewBox="0 0 32 32">
<path d="M1.846 7.981c-1.014 1.027-1.846 1.888-1.846 1.914 0 0.058 15.952 16.006 15.994 15.99 0.016-0.006 3.626-3.59 8.019-7.965 7.088-7.056 7.987-7.962 7.987-8.048s-0.221-0.314-1.853-1.93c-1.021-1.005-1.866-1.83-1.882-1.83-0.013 0-2.774 2.765-6.134 6.144s-6.118 6.144-6.134 6.144c-0.013 0-2.778-2.765-6.147-6.144-3.366-3.379-6.131-6.144-6.141-6.144s-0.848 0.842-1.862 1.869z"></path>
</symbol>
<symbol id="icon-pointer_down_white" viewBox="0 0 32 32">
<path d="M1.846 7.981c-1.014 1.027-1.846 1.888-1.846 1.914 0 0.058 15.952 16.006 15.994 15.99 0.016-0.006 3.626-3.59 8.019-7.965 7.088-7.056 7.987-7.962 7.987-8.048s-0.221-0.314-1.853-1.93c-1.021-1.005-1.866-1.83-1.882-1.83-0.013 0-2.774 2.765-6.134 6.144s-6.118 6.144-6.134 6.144c-0.013 0-2.778-2.765-6.147-6.144-3.366-3.379-6.131-6.144-6.141-6.144s-0.848 0.842-1.862 1.869z"></path>
</symbol>
<symbol id="icon-pointer_up_black" viewBox="0 0 32 32">
<path d="M7.958 14.074c-6.614 6.614-7.958 7.974-7.958 8.045s0.33 0.416 1.83 1.93c1.405 1.414 1.843 1.84 1.894 1.834 0.038-0.006 2.602-2.554 6.163-6.128 3.354-3.366 6.106-6.118 6.115-6.112 0.013 0.003 2.762 2.762 6.109 6.128 4.422 4.445 6.106 6.118 6.157 6.118s0.595-0.518 1.901-1.811l1.83-1.811v-0.275l-7.971-7.939c-5.571-5.546-7.994-7.939-8.042-7.939s-2.458 2.39-8.029 7.962z"></path>
</symbol>
<symbol id="icon-pointer_up_white" viewBox="0 0 32 32">
<path d="M7.958 14.074c-6.614 6.614-7.958 7.974-7.958 8.045s0.33 0.416 1.83 1.93c1.405 1.414 1.843 1.84 1.894 1.834 0.038-0.006 2.602-2.554 6.163-6.128 3.354-3.366 6.106-6.118 6.115-6.112 0.013 0.003 2.762 2.762 6.109 6.128 4.422 4.445 6.106 6.118 6.157 6.118s0.595-0.518 1.901-1.811l1.83-1.811v-0.275l-7.971-7.939c-5.571-5.546-7.994-7.939-8.042-7.939s-2.458 2.39-8.029 7.962z"></path>
</symbol>
<symbol id="icon-books_black" viewBox="0 0 32 32">
<path d="M11.216 5.229c-0.23 0.077-0.352 0.141-0.528 0.272-0.218 0.163-0.346 0.326-0.467 0.586l-0.093 0.202-0.010 1.686-0.010 1.69h2.877c2.266 0 2.886 0.010 2.909 0.038 0.035 0.045 0.064 0.16 0.47 1.754 0.147 0.573 0.39 1.53 0.544 2.128s0.4 1.562 0.547 2.144c0.147 0.579 0.291 1.136 0.317 1.232 0.051 0.173 0.307 1.19 0.771 3.056 0.134 0.528 0.269 1.053 0.304 1.168s0.173 0.64 0.304 1.168c0.355 1.411 1.219 4.803 1.373 5.382 0.061 0.224 0.202 0.474 0.336 0.592 0.298 0.262 0.784 0.374 1.155 0.272 0.909-0.253 0.982-0.282 1.165-0.438 0.064-0.058 0.16-0.173 0.214-0.256 0.083-0.131 0.134-0.17 0.33-0.253 0.493-0.211 1.485-0.493 2.339-0.659 0.125-0.026 0.262-0.054 0.307-0.064 0.061-0.016 0.141 0.006 0.288 0.083 0.381 0.192 0.845 0.163 1.565-0.090 0.282-0.099 0.426-0.186 0.563-0.333 0.346-0.378 0.4-0.848 0.186-1.581-0.048-0.16-0.125-0.438-0.173-0.624-0.051-0.186-0.144-0.538-0.208-0.784-0.067-0.246-0.144-0.55-0.173-0.675-0.032-0.125-0.064-0.24-0.077-0.256-0.010-0.019-0.106-0.371-0.211-0.784s-0.221-0.858-0.256-0.989c-0.038-0.131-0.118-0.435-0.182-0.672s-0.195-0.72-0.291-1.072c-0.278-1.034-0.285-1.056-0.474-1.789-0.099-0.384-0.198-0.758-0.224-0.832s-0.102-0.362-0.176-0.643c-0.141-0.541-0.317-1.206-0.477-1.792-0.090-0.33-0.186-0.688-0.627-2.368-0.096-0.371-0.227-0.861-0.291-1.088-0.061-0.23-0.17-0.634-0.24-0.896-0.070-0.266-0.17-0.646-0.224-0.848s-0.118-0.442-0.141-0.528c-0.026-0.090-0.115-0.426-0.202-0.752s-0.208-0.787-0.272-1.024c-0.186-0.707-0.262-0.877-0.48-1.078-0.336-0.31-0.755-0.403-1.222-0.272-0.122 0.035-0.355 0.099-0.515 0.144-0.163 0.045-0.336 0.102-0.384 0.128-0.122 0.064-0.314 0.253-0.419 0.413-0.048 0.070-0.141 0.154-0.208 0.189-0.362 0.186-1.498 0.518-2.262 0.669-0.557 0.106-0.566 0.106-0.8 0.013-0.16-0.067-0.285-0.090-0.515-0.099-0.275-0.013-0.342-0.003-0.704 0.096-0.221 0.061-0.426 0.122-0.454 0.134-0.051 0.019-0.058 0-0.058-0.163 0-0.682-0.298-1.165-0.886-1.446l-0.25-0.118-1.776-0.006c-1.411-0.006-1.802 0.003-1.904 0.035zM21.523 8.982c0.029 0.102 0.070 0.25 0.096 0.326 0.029 0.080 0.077 0.259 0.109 0.4 0.035 0.144 0.141 0.554 0.24 0.915 0.096 0.362 0.253 0.957 0.352 1.328 0.096 0.368 0.221 0.829 0.272 1.024 0.054 0.192 0.176 0.646 0.272 1.008 0.093 0.362 0.224 0.851 0.288 1.088 0.234 0.864 0.333 1.238 0.432 1.616 0.054 0.211 0.128 0.483 0.16 0.608 0.035 0.122 0.112 0.41 0.173 0.64 0.33 1.219 0.454 1.693 0.614 2.304 0.099 0.368 0.221 0.829 0.275 1.024 0.186 0.666 0.211 0.771 0.403 1.52 0.109 0.416 0.214 0.819 0.24 0.896 0.176 0.531 0.186 0.63 0.064 0.659-0.051 0.010-0.349 0.090-0.666 0.179-0.317 0.086-0.739 0.198-0.934 0.25-0.198 0.051-0.493 0.131-0.653 0.176s-0.294 0.080-0.301 0.074c-0.016-0.026-0.141-0.477-0.355-1.322-0.131-0.512-0.282-1.066-0.333-1.232s-0.102-0.349-0.115-0.4c-0.058-0.262-0.406-1.584-0.445-1.696-0.042-0.112-0.317-1.174-0.451-1.728-0.026-0.106-0.061-0.224-0.077-0.266-0.029-0.064-0.374-1.386-0.493-1.882-0.022-0.086-0.048-0.176-0.058-0.192-0.013-0.016-0.096-0.317-0.186-0.669-0.224-0.864-0.32-1.232-0.445-1.664-0.035-0.125-0.138-0.512-0.227-0.864s-0.198-0.755-0.24-0.896c-0.042-0.141-0.118-0.429-0.173-0.64s-0.166-0.63-0.246-0.928c-0.262-0.966-0.298-1.117-0.285-1.13 0.006-0.006 0.144-0.045 0.31-0.086 0.163-0.042 0.406-0.106 0.538-0.144s0.528-0.144 0.88-0.237c0.352-0.096 0.691-0.186 0.752-0.205s0.122-0.035 0.134-0.035c0.013-0.003 0.048 0.080 0.077 0.179z"></path>
<path d="M4.026 5.248c-0.192 0.032-0.499 0.173-0.525 0.24-0.010 0.026-0.038 0.048-0.061 0.048-0.067 0-0.358 0.339-0.4 0.464-0.019 0.061-0.048 0.112-0.064 0.112s-0.048 0.083-0.070 0.182c-0.032 0.141-0.042 0.573-0.042 1.77v1.584l5.875 0.016-0.010-1.67-0.010-1.674-0.141-0.282c-0.077-0.154-0.15-0.278-0.166-0.278s-0.029-0.019-0.029-0.042c0-0.067-0.214-0.221-0.496-0.362l-0.256-0.125-1.728-0.006c-0.95 0-1.795 0.010-1.878 0.022z"></path>
<path d="M2.864 11.078c-0.010 0.022-0.013 2.662-0.010 5.866l0.010 5.824 5.872 0.016v-11.744h-2.928c-2.314 0-2.934 0.010-2.944 0.038z"></path>
<path d="M10.15 11.078c-0.029 0.029-0.038 1.36-0.038 5.856v5.818l0.074 0.016c0.038 0.010 1.36 0.013 2.934 0.010l2.864-0.010 0.016-4.288c0.010-2.358 0.010-4.995 0-5.856l-0.016-1.568-2.896-0.010c-2.227-0.006-2.909 0.003-2.938 0.032z"></path>
<path d="M2.864 24.234c-0.013 0.042-0.016 0.758-0.010 1.594 0.010 1.168 0.022 1.558 0.058 1.693 0.026 0.096 0.051 0.182 0.061 0.192 0.013 0.010 0.054 0.086 0.096 0.17 0.086 0.17 0.394 0.47 0.576 0.566 0.294 0.147 0.448 0.16 2.176 0.16 1.334 0 1.654-0.010 1.805-0.048 0.243-0.064 0.429-0.16 0.525-0.275 0.045-0.051 0.106-0.093 0.138-0.093s0.074-0.038 0.093-0.090c0.019-0.048 0.086-0.154 0.147-0.234 0.202-0.266 0.208-0.336 0.208-2.115v-1.594h-5.856l-0.016 0.074z"></path>
<path d="M10.134 24.182c-0.013 0.010-0.022 0.71-0.022 1.555 0 1.546 0.003 1.603 0.118 1.869 0.022 0.054 0.042 0.118 0.042 0.144 0 0.131 0.448 0.634 0.563 0.634 0.026 0 0.045 0.010 0.045 0.026 0 0.013 0.125 0.064 0.282 0.112l0.278 0.090 3.424-0.019 0.256-0.112c0.198-0.086 0.304-0.16 0.474-0.323 0.118-0.118 0.214-0.24 0.214-0.275 0-0.032 0.022-0.090 0.048-0.128 0.131-0.186 0.144-0.371 0.144-2.016v-1.578h-2.922c-1.61 0-2.934 0.010-2.944 0.022z"></path>
</symbol>
<symbol id="icon-books_white" viewBox="0 0 32 32">
<path d="M10.134 24.182c-0.013 0.010-0.022 0.71-0.022 1.555 0 1.546 0.003 1.603 0.118 1.869 0.022 0.054 0.042 0.118 0.042 0.144 0 0.131 0.448 0.634 0.563 0.634 0.026 0 0.045 0.010 0.045 0.026 0 0.013 0.125 0.064 0.282 0.112l0.278 0.090 3.424-0.019 0.256-0.112c0.198-0.086 0.304-0.16 0.474-0.323 0.118-0.118 0.214-0.24 0.214-0.275 0-0.032 0.022-0.090 0.048-0.128 0.131-0.186 0.144-0.371 0.144-2.016v-1.578h-2.922c-1.61 0-2.934 0.010-2.944 0.022z"></path>
</symbol>
<symbol id="icon-cards_question_black" viewBox="0 0 32 32">
<path d="M11.168 6.499c0 0.035-0.013 0.058-0.026 0.048-0.029-0.016-9.722 2.515-9.754 2.55-0.016 0.016 4.042 15.542 4.070 15.571 0.016 0.016-0.045 0.032 4.339-1.12l3.894-1.021h4.406l3.578 1.283c1.968 0.704 3.584 1.274 3.594 1.264 0.016-0.016 5.402-15.030 5.424-15.117 0.006-0.032-1.35-0.531-4.534-1.674-5.414-1.939-4.912-1.754-4.912-1.808 0-0.038-0.781-0.045-5.040-0.045h-5.040v0.067zM19.648 14.48v6.448h-2.368c-1.302 0-2.368-0.010-2.368-0.019s-0.483-1.859-1.072-4.106l-1.072-4.090v-4.682h6.88v6.448zM10.013 8.646c0.022 0.077 0.755 2.874 1.632 6.218 1.398 5.325 1.59 6.083 1.542 6.102-0.141 0.064-6.544 1.722-6.563 1.699-0.026-0.029-3.27-12.397-3.258-12.41 0.006-0.006 6.522-1.728 6.589-1.741 0.013 0 0.038 0.058 0.058 0.131zM25.418 9.75c1.754 0.63 3.19 1.158 3.19 1.174 0 0.042-4.291 12.029-4.317 12.058-0.013 0.013-0.698-0.218-1.523-0.515l-1.504-0.538-0.010-5.37-0.006-5.366 0.435-1.219c0.243-0.672 0.451-1.254 0.464-1.296 0.016-0.038 0.038-0.070 0.051-0.070 0.016 0 1.462 0.515 3.219 1.142z"></path>
<path d="M15.546 9.939c-0.333 0.061-0.806 0.214-1.008 0.333-0.237 0.134-0.282 0.218-0.278 0.499 0.003 0.259 0.054 0.416 0.144 0.438 0.032 0.010 0.214-0.058 0.419-0.157 0.451-0.214 0.778-0.301 1.146-0.301 0.355 0 0.573 0.042 0.822 0.157 0.49 0.23 0.746 0.704 0.746 1.379 0 0.525-0.138 0.883-0.448 1.162-0.227 0.205-0.445 0.282-0.899 0.31-0.419 0.029-0.544 0.074-0.605 0.224-0.064 0.15-0.022 1.978 0.045 2.045 0.109 0.109 0.733 0.102 0.845-0.006 0.032-0.035 0.048-0.218 0.061-0.778 0.013-0.48 0.032-0.742 0.054-0.755 0.019-0.013 0.077-0.026 0.128-0.026 0.314 0 0.867-0.23 1.168-0.48 0.656-0.547 0.915-1.69 0.595-2.64-0.253-0.762-0.864-1.258-1.728-1.408-0.339-0.058-0.874-0.058-1.206 0.003z"></path>
<path d="M15.67 16.899c-0.179 0.093-0.227 0.23-0.227 0.621-0.003 0.544 0.128 0.685 0.634 0.688 0.275 0 0.48-0.070 0.554-0.189 0.118-0.189 0.115-0.822-0.006-1.005-0.080-0.125-0.266-0.182-0.57-0.182-0.198 0.003-0.291 0.019-0.384 0.067z"></path>
<path d="M7.52 11.062c-0.122 0.016-0.682 0.157-0.784 0.198-0.211 0.090-0.688 0.339-0.688 0.362 0 0.013-0.016 0.026-0.035 0.026-0.067 0-0.4 0.266-0.502 0.403-0.096 0.122-0.102 0.147-0.086 0.31 0.010 0.096 0.038 0.218 0.064 0.269 0.026 0.048 0.048 0.102 0.048 0.122 0.003 0.064 0.118 0.166 0.179 0.163 0.080-0.006 0.182-0.067 0.298-0.173 0.24-0.227 0.32-0.294 0.352-0.294 0.019 0 0.035-0.010 0.035-0.026 0-0.013 0.026-0.038 0.058-0.054 0.499-0.269 0.838-0.374 1.197-0.371 0.234 0 0.586 0.080 0.669 0.154 0.026 0.022 0.061 0.042 0.070 0.042 0.032 0 0.288 0.259 0.378 0.384 0.192 0.272 0.33 0.768 0.307 1.117-0.019 0.291-0.048 0.454-0.093 0.509-0.019 0.022-0.058 0.080-0.086 0.134-0.080 0.144-0.32 0.384-0.387 0.384-0.016 0-0.032 0.013-0.032 0.032 0 0.016-0.029 0.032-0.064 0.032s-0.064 0.013-0.064 0.026c0 0.013-0.102 0.051-0.224 0.083-0.394 0.099-0.557 0.211-0.573 0.394-0.006 0.102 0.262 1.187 0.326 1.306 0.019 0.035 0.067 0.192 0.106 0.349 0.080 0.314 0.090 0.33 0.205 0.342 0.23 0.026 0.739-0.134 0.781-0.25 0.019-0.048-0.029-0.294-0.202-0.989-0.128-0.525-0.128-0.541 0.061-0.576 0.051-0.013 0.096-0.032 0.096-0.048s0.026-0.029 0.058-0.029c0.029 0 0.090-0.029 0.134-0.064s0.099-0.064 0.122-0.064c0.019 0 0.038-0.013 0.038-0.029s0.026-0.038 0.058-0.048c0.058-0.019 0.39-0.32 0.39-0.355 0-0.013 0.048-0.080 0.109-0.154 0.058-0.074 0.118-0.17 0.131-0.214s0.035-0.096 0.048-0.112c0.022-0.032 0.090-0.294 0.122-0.464 0.019-0.118 0.019-0.634-0.003-0.803-0.019-0.173-0.077-0.39-0.134-0.525-0.022-0.054-0.067-0.16-0.099-0.24s-0.067-0.15-0.077-0.16c-0.010-0.010-0.045-0.074-0.080-0.141-0.067-0.134-0.419-0.506-0.576-0.614-0.125-0.083-0.442-0.237-0.525-0.253-0.038-0.006-0.080-0.022-0.099-0.032-0.077-0.048-0.771-0.086-1.024-0.058z"></path>
<path d="M8.765 17.901c-0.298 0.083-0.467 0.192-0.496 0.323-0.051 0.227-0.003 0.509 0.138 0.803 0.090 0.192 0.176 0.262 0.352 0.285 0.138 0.016 0.608-0.099 0.675-0.166 0.022-0.022 0.054-0.042 0.067-0.042 0.045 0 0.128-0.182 0.131-0.291 0.010-0.266-0.109-0.672-0.246-0.842-0.115-0.141-0.298-0.163-0.621-0.070z"></path>
<path d="M23.098 11.248c-0.006 0.006-0.048 0.019-0.090 0.026-0.102 0.016-0.198 0.058-0.24 0.102-0.054 0.058-0.147 0.259-0.163 0.355-0.074 0.426-0.058 0.442 0.339 0.406 0.294-0.029 0.851-0.029 1.011-0.003 0.144 0.022 0.595 0.189 0.656 0.24 0.026 0.022 0.067 0.042 0.086 0.042 0.022 0 0.038 0.013 0.038 0.032 0 0.016 0.016 0.032 0.035 0.032 0.086 0 0.445 0.442 0.477 0.582 0.003 0.013 0.026 0.086 0.048 0.16 0.067 0.23 0.038 0.611-0.074 0.928-0.118 0.336-0.221 0.506-0.422 0.704-0.227 0.221-0.467 0.32-0.8 0.333-0.227 0.010-0.31-0.003-0.49-0.067-0.122-0.045-0.304-0.086-0.41-0.096-0.285-0.019-0.31 0.013-0.554 0.72-0.314 0.918-0.419 1.254-0.41 1.306 0.016 0.067 0.077 0.122 0.166 0.15 0.045 0.013 0.109 0.042 0.144 0.061 0.099 0.061 0.416 0.125 0.502 0.106 0.058-0.016 0.090-0.058 0.118-0.157 0.022-0.077 0.067-0.182 0.096-0.234 0.032-0.054 0.125-0.291 0.208-0.528 0.086-0.237 0.176-0.448 0.202-0.47 0.035-0.026 0.074-0.029 0.131-0.006 0.17 0.064 0.653 0.096 0.864 0.054 0.243-0.045 0.278-0.051 0.288-0.061 0.003-0.003 0.022-0.010 0.038-0.013 0.019-0.003 0.038-0.013 0.048-0.016s0.026-0.010 0.042-0.013c0.080-0.022 0.294-0.125 0.294-0.144 0-0.010 0.038-0.038 0.090-0.058 0.086-0.042 0.454-0.368 0.454-0.406 0-0.016 0.061-0.099 0.144-0.192 0.048-0.054 0.272-0.496 0.326-0.643 0.042-0.118 0.080-0.272 0.128-0.512 0.026-0.134 0.026-0.653 0-0.768-0.013-0.054-0.029-0.141-0.038-0.192-0.019-0.099-0.067-0.221-0.115-0.304-0.016-0.026-0.038-0.070-0.051-0.096-0.131-0.301-0.707-0.848-0.998-0.95-0.029-0.013-0.074-0.035-0.099-0.058-0.093-0.074-0.627-0.246-0.944-0.304-0.278-0.051-1.040-0.086-1.078-0.048z"></path>
<path d="M21.869 17.882c-0.106 0.010-0.246 0.138-0.285 0.259-0.010 0.035-0.032 0.067-0.045 0.067-0.051 0-0.208 0.65-0.166 0.691 0.010 0.010 0.019 0.032 0.019 0.048 0 0.013 0.045 0.077 0.102 0.134 0.182 0.195 0.704 0.339 0.88 0.243 0.102-0.054 0.208-0.17 0.234-0.256 0.013-0.042 0.038-0.096 0.058-0.118 0.058-0.070 0.144-0.461 0.131-0.579-0.022-0.17-0.17-0.304-0.445-0.403-0.24-0.090-0.32-0.102-0.483-0.086z"></path>
</symbol>
<symbol id="icon-cards_question_white" viewBox="0 0 32 32">
<path d="M21.869 17.882c-0.106 0.010-0.246 0.138-0.285 0.259-0.010 0.035-0.032 0.067-0.045 0.067-0.051 0-0.208 0.65-0.166 0.691 0.010 0.010 0.019 0.032 0.019 0.048 0 0.013 0.045 0.077 0.102 0.134 0.182 0.195 0.704 0.339 0.88 0.243 0.102-0.054 0.208-0.17 0.234-0.256 0.013-0.042 0.038-0.096 0.058-0.118 0.058-0.070 0.144-0.461 0.131-0.579-0.022-0.17-0.17-0.304-0.445-0.403-0.24-0.090-0.32-0.102-0.483-0.086z"></path>
</symbol>
<symbol id="icon-envelope_black" viewBox="0 0 32 32">
<path d="M4.768 6.144c-0.131 0.035-0.378 0.131-0.544 0.214-0.259 0.128-0.349 0.198-0.624 0.474s-0.346 0.365-0.474 0.624c-0.083 0.166-0.179 0.419-0.214 0.557-0.064 0.25-0.064 0.384-0.064 7.987s0 7.738 0.064 7.987c0.227 0.912 0.954 1.635 1.869 1.869 0.253 0.064 0.339 0.064 11.251 0.064s10.998 0 11.251-0.064c0.922-0.234 1.635-0.947 1.869-1.869 0.064-0.25 0.064-0.346 0.064-7.987 0-7.603 0-7.738-0.064-7.987-0.035-0.138-0.131-0.39-0.214-0.557-0.128-0.259-0.198-0.349-0.474-0.624s-0.365-0.346-0.624-0.474c-0.166-0.083-0.419-0.179-0.557-0.214-0.25-0.064-0.39-0.064-11.264-0.061-10.758 0-11.018 0.003-11.251 0.061zM20.992 13.584c-2.72 2.72-4.944 4.944-4.944 4.944s-2.224-2.224-4.944-4.944l-4.944-4.944h19.776l-4.944 4.944zM14.56 20.662c0.429 0.285 0.842 0.422 1.363 0.448 0.57 0.029 1.085-0.109 1.533-0.406 0.125-0.083 1.795-1.731 4.694-4.63l4.506-4.506v11.792h-21.248v-11.792l4.506 4.499c2.477 2.477 4.566 4.544 4.646 4.595z"></path>
</symbol>
<symbol id="icon-envelope_white" viewBox="0 0 32 32">
<path d="M4.768 6.144c-0.131 0.035-0.378 0.131-0.544 0.214-0.259 0.128-0.349 0.198-0.624 0.474s-0.346 0.365-0.474 0.624c-0.083 0.166-0.179 0.419-0.214 0.557-0.064 0.25-0.064 0.384-0.064 7.987s0 7.738 0.064 7.987c0.227 0.912 0.954 1.635 1.869 1.869 0.253 0.064 0.339 0.064 11.251 0.064s10.998 0 11.251-0.064c0.922-0.234 1.635-0.947 1.869-1.869 0.064-0.25 0.064-0.346 0.064-7.987 0-7.603 0-7.738-0.064-7.987-0.035-0.138-0.131-0.39-0.214-0.557-0.128-0.259-0.198-0.349-0.474-0.624s-0.365-0.346-0.624-0.474c-0.166-0.083-0.419-0.179-0.557-0.214-0.25-0.064-0.39-0.064-11.264-0.061-10.758 0-11.018 0.003-11.251 0.061zM20.992 13.584c-2.72 2.72-4.944 4.944-4.944 4.944s-2.224-2.224-4.944-4.944l-4.944-4.944h19.776l-4.944 4.944zM14.56 20.662c0.429 0.285 0.842 0.422 1.363 0.448 0.57 0.029 1.085-0.109 1.533-0.406 0.125-0.083 1.795-1.731 4.694-4.63l4.506-4.506v11.792h-21.248v-11.792l4.506 4.499c2.477 2.477 4.566 4.544 4.646 4.595z"></path>
</symbol>
<symbol id="icon-school_black" viewBox="0 0 32 32">
<path d="M14.944 4.95l-0.003 0.122-8.093 5.302v18.714h6.112v-7.52h6.048v7.52h6.144v-18.714l-8.093-5.302v-0.122l-0.003-0.118h-2.112v0.118zM16.72 9.456c1.315 0.272 2.381 1.216 2.826 2.496 0.246 0.723 0.246 1.677 0 2.4-0.387 1.117-1.27 2-2.378 2.378-0.73 0.246-1.67 0.246-2.4 0-1.107-0.378-1.99-1.261-2.378-2.378-0.246-0.723-0.246-1.677 0-2.4 0.182-0.525 0.464-0.989 0.842-1.389 0.598-0.634 1.379-1.034 2.256-1.155 0.288-0.038 0.925-0.016 1.232 0.048z"></path>
<path d="M15.734 10.957c-0.24 0.090-0.435 0.294-0.502 0.531-0.016 0.051-0.032 0.678-0.035 1.389l-0.006 1.293 0.093 0.186c0.064 0.131 0.138 0.218 0.23 0.285l0.141 0.096h2.259l0.138-0.096c0.086-0.061 0.173-0.16 0.227-0.269 0.077-0.144 0.090-0.208 0.090-0.419s-0.013-0.275-0.090-0.419c-0.054-0.109-0.141-0.208-0.227-0.269l-0.138-0.096-1.114-0.019v-0.79c-0.003-0.851-0.016-0.934-0.173-1.142-0.189-0.246-0.602-0.368-0.893-0.259z"></path>
<path d="M1.696 13.811c-0.096 0.026-0.234 0.083-0.307 0.125-0.202 0.118-0.477 0.435-0.563 0.646l-0.074 0.186v13.312l0.070 0.176c0.141 0.342 0.438 0.627 0.797 0.755l0.208 0.077h3.581v-15.328l-1.766 0.003c-1.453 0-1.802 0.010-1.946 0.048z"></path>
<path d="M26.592 21.456v7.664h1.754c1.894 0 1.968-0.006 2.256-0.176 0.304-0.176 0.56-0.528 0.627-0.858 0.026-0.115 0.035-2.118 0.029-6.726l-0.010-6.56-0.077-0.192c-0.058-0.144-0.134-0.25-0.304-0.419s-0.275-0.246-0.419-0.304l-0.192-0.077-3.664-0.016v7.664z"></path>
</symbol>
<symbol id="icon-school_white" viewBox="0 0 32 32">
<path d="M26.592 21.456v7.664h1.754c1.894 0 1.968-0.006 2.256-0.176 0.304-0.176 0.56-0.528 0.627-0.858 0.026-0.115 0.035-2.118 0.029-6.726l-0.010-6.56-0.077-0.192c-0.058-0.144-0.134-0.25-0.304-0.419s-0.275-0.246-0.419-0.304l-0.192-0.077-3.664-0.016v7.664z"></path>
</symbol>
</defs>
</svg>
