<!-- Generated by IcoMoon.io -->
<svg version="1.1" xmlns="http://www.w3.org/2000/svg" width="32" height="32" viewBox="0 0 32 32">
<title>books_black</title>
<path d="M11.216 5.229c-0.23 0.077-0.352 0.141-0.528 0.272-0.218 0.163-0.346 0.326-0.467 0.586l-0.093 0.202-0.010 1.686-0.010 1.69h2.877c2.266 0 2.886 0.010 2.909 0.038 0.035 0.045 0.064 0.16 0.47 1.754 0.147 0.573 0.39 1.53 0.544 2.128s0.4 1.562 0.547 2.144c0.147 0.579 0.291 1.136 0.317 1.232 0.051 0.173 0.307 1.19 0.771 3.056 0.134 0.528 0.269 1.053 0.304 1.168s0.173 0.64 0.304 1.168c0.355 1.411 1.219 4.803 1.373 5.382 0.061 0.224 0.202 0.474 0.336 0.592 0.298 0.262 0.784 0.374 1.155 0.272 0.909-0.253 0.982-0.282 1.165-0.438 0.064-0.058 0.16-0.173 0.214-0.256 0.083-0.131 0.134-0.17 0.33-0.253 0.493-0.211 1.485-0.493 2.339-0.659 0.125-0.026 0.262-0.054 0.307-0.064 0.061-0.016 0.141 0.006 0.288 0.083 0.381 0.192 0.845 0.163 1.565-0.090 0.282-0.099 0.426-0.186 0.563-0.333 0.346-0.378 0.4-0.848 0.186-1.581-0.048-0.16-0.125-0.438-0.173-0.624-0.051-0.186-0.144-0.538-0.208-0.784-0.067-0.246-0.144-0.55-0.173-0.675-0.032-0.125-0.064-0.24-0.077-0.256-0.010-0.019-0.106-0.371-0.211-0.784s-0.221-0.858-0.256-0.989c-0.038-0.131-0.118-0.435-0.182-0.672s-0.195-0.72-0.291-1.072c-0.278-1.034-0.285-1.056-0.474-1.789-0.099-0.384-0.198-0.758-0.224-0.832s-0.102-0.362-0.176-0.643c-0.141-0.541-0.317-1.206-0.477-1.792-0.090-0.33-0.186-0.688-0.627-2.368-0.096-0.371-0.227-0.861-0.291-1.088-0.061-0.23-0.17-0.634-0.24-0.896-0.070-0.266-0.17-0.646-0.224-0.848s-0.118-0.442-0.141-0.528c-0.026-0.090-0.115-0.426-0.202-0.752s-0.208-0.787-0.272-1.024c-0.186-0.707-0.262-0.877-0.48-1.078-0.336-0.31-0.755-0.403-1.222-0.272-0.122 0.035-0.355 0.099-0.515 0.144-0.163 0.045-0.336 0.102-0.384 0.128-0.122 0.064-0.314 0.253-0.419 0.413-0.048 0.070-0.141 0.154-0.208 0.189-0.362 0.186-1.498 0.518-2.262 0.669-0.557 0.106-0.566 0.106-0.8 0.013-0.16-0.067-0.285-0.090-0.515-0.099-0.275-0.013-0.342-0.003-0.704 0.096-0.221 0.061-0.426 0.122-0.454 0.134-0.051 0.019-0.058 0-0.058-0.163 0-0.682-0.298-1.165-0.886-1.446l-0.25-0.118-1.776-0.006c-1.411-0.006-1.802 0.003-1.904 0.035zM21.523 8.982c0.029 0.102 0.070 0.25 0.096 0.326 0.029 0.080 0.077 0.259 0.109 0.4 0.035 0.144 0.141 0.554 0.24 0.915 0.096 0.362 0.253 0.957 0.352 1.328 0.096 0.368 0.221 0.829 0.272 1.024 0.054 0.192 0.176 0.646 0.272 1.008 0.093 0.362 0.224 0.851 0.288 1.088 0.234 0.864 0.333 1.238 0.432 1.616 0.054 0.211 0.128 0.483 0.16 0.608 0.035 0.122 0.112 0.41 0.173 0.64 0.33 1.219 0.454 1.693 0.614 2.304 0.099 0.368 0.221 0.829 0.275 1.024 0.186 0.666 0.211 0.771 0.403 1.52 0.109 0.416 0.214 0.819 0.24 0.896 0.176 0.531 0.186 0.63 0.064 0.659-0.051 0.010-0.349 0.090-0.666 0.179-0.317 0.086-0.739 0.198-0.934 0.25-0.198 0.051-0.493 0.131-0.653 0.176s-0.294 0.080-0.301 0.074c-0.016-0.026-0.141-0.477-0.355-1.322-0.131-0.512-0.282-1.066-0.333-1.232s-0.102-0.349-0.115-0.4c-0.058-0.262-0.406-1.584-0.445-1.696-0.042-0.112-0.317-1.174-0.451-1.728-0.026-0.106-0.061-0.224-0.077-0.266-0.029-0.064-0.374-1.386-0.493-1.882-0.022-0.086-0.048-0.176-0.058-0.192-0.013-0.016-0.096-0.317-0.186-0.669-0.224-0.864-0.32-1.232-0.445-1.664-0.035-0.125-0.138-0.512-0.227-0.864s-0.198-0.755-0.24-0.896c-0.042-0.141-0.118-0.429-0.173-0.64s-0.166-0.63-0.246-0.928c-0.262-0.966-0.298-1.117-0.285-1.13 0.006-0.006 0.144-0.045 0.31-0.086 0.163-0.042 0.406-0.106 0.538-0.144s0.528-0.144 0.88-0.237c0.352-0.096 0.691-0.186 0.752-0.205s0.122-0.035 0.134-0.035c0.013-0.003 0.048 0.080 0.077 0.179z"></path>
<path d="M4.026 5.248c-0.192 0.032-0.499 0.173-0.525 0.24-0.010 0.026-0.038 0.048-0.061 0.048-0.067 0-0.358 0.339-0.4 0.464-0.019 0.061-0.048 0.112-0.064 0.112s-0.048 0.083-0.070 0.182c-0.032 0.141-0.042 0.573-0.042 1.77v1.584l5.875 0.016-0.010-1.67-0.010-1.674-0.141-0.282c-0.077-0.154-0.15-0.278-0.166-0.278s-0.029-0.019-0.029-0.042c0-0.067-0.214-0.221-0.496-0.362l-0.256-0.125-1.728-0.006c-0.95 0-1.795 0.010-1.878 0.022z"></path>
<path d="M2.864 11.078c-0.010 0.022-0.013 2.662-0.010 5.866l0.010 5.824 5.872 0.016v-11.744h-2.928c-2.314 0-2.934 0.010-2.944 0.038z"></path>
<path d="M10.15 11.078c-0.029 0.029-0.038 1.36-0.038 5.856v5.818l0.074 0.016c0.038 0.010 1.36 0.013 2.934 0.010l2.864-0.010 0.016-4.288c0.010-2.358 0.010-4.995 0-5.856l-0.016-1.568-2.896-0.010c-2.227-0.006-2.909 0.003-2.938 0.032z"></path>
<path d="M2.864 24.234c-0.013 0.042-0.016 0.758-0.010 1.594 0.010 1.168 0.022 1.558 0.058 1.693 0.026 0.096 0.051 0.182 0.061 0.192 0.013 0.010 0.054 0.086 0.096 0.17 0.086 0.17 0.394 0.47 0.576 0.566 0.294 0.147 0.448 0.16 2.176 0.16 1.334 0 1.654-0.010 1.805-0.048 0.243-0.064 0.429-0.16 0.525-0.275 0.045-0.051 0.106-0.093 0.138-0.093s0.074-0.038 0.093-0.090c0.019-0.048 0.086-0.154 0.147-0.234 0.202-0.266 0.208-0.336 0.208-2.115v-1.594h-5.856l-0.016 0.074z"></path>
<path d="M10.134 24.182c-0.013 0.010-0.022 0.71-0.022 1.555 0 1.546 0.003 1.603 0.118 1.869 0.022 0.054 0.042 0.118 0.042 0.144 0 0.131 0.448 0.634 0.563 0.634 0.026 0 0.045 0.010 0.045 0.026 0 0.013 0.125 0.064 0.282 0.112l0.278 0.090 3.424-0.019 0.256-0.112c0.198-0.086 0.304-0.16 0.474-0.323 0.118-0.118 0.214-0.24 0.214-0.275 0-0.032 0.022-0.090 0.048-0.128 0.131-0.186 0.144-0.371 0.144-2.016v-1.578h-2.922c-1.61 0-2.934 0.010-2.944 0.022z"></path>
</svg>
