<!-- Generated by IcoMoon.io -->
<svg version="1.1" xmlns="http://www.w3.org/2000/svg" width="32" height="32" viewBox="0 0 32 32">
<title>books_white</title>
<path d="M10.134 24.182c-0.013 0.010-0.022 0.71-0.022 1.555 0 1.546 0.003 1.603 0.118 1.869 0.022 0.054 0.042 0.118 0.042 0.144 0 0.131 0.448 0.634 0.563 0.634 0.026 0 0.045 0.010 0.045 0.026 0 0.013 0.125 0.064 0.282 0.112l0.278 0.090 3.424-0.019 0.256-0.112c0.198-0.086 0.304-0.16 0.474-0.323 0.118-0.118 0.214-0.24 0.214-0.275 0-0.032 0.022-0.090 0.048-0.128 0.131-0.186 0.144-0.371 0.144-2.016v-1.578h-2.922c-1.61 0-2.934 0.010-2.944 0.022z"></path>
</svg>
