<!-- Generated by IcoMoon.io -->
<svg version="1.1" xmlns="http://www.w3.org/2000/svg" width="32" height="32" viewBox="0 0 32 32">
<title>cards_question_black</title>
<path d="M11.168 6.499c0 0.035-0.013 0.058-0.026 0.048-0.029-0.016-9.722 2.515-9.754 2.55-0.016 0.016 4.042 15.542 4.070 15.571 0.016 0.016-0.045 0.032 4.339-1.12l3.894-1.021h4.406l3.578 1.283c1.968 0.704 3.584 1.274 3.594 1.264 0.016-0.016 5.402-15.030 5.424-15.117 0.006-0.032-1.35-0.531-4.534-1.674-5.414-1.939-4.912-1.754-4.912-1.808 0-0.038-0.781-0.045-5.040-0.045h-5.040v0.067zM19.648 14.48v6.448h-2.368c-1.302 0-2.368-0.010-2.368-0.019s-0.483-1.859-1.072-4.106l-1.072-4.090v-4.682h6.88v6.448zM10.013 8.646c0.022 0.077 0.755 2.874 1.632 6.218 1.398 5.325 1.59 6.083 1.542 6.102-0.141 0.064-6.544 1.722-6.563 1.699-0.026-0.029-3.27-12.397-3.258-12.41 0.006-0.006 6.522-1.728 6.589-1.741 0.013 0 0.038 0.058 0.058 0.131zM25.418 9.75c1.754 0.63 3.19 1.158 3.19 1.174 0 0.042-4.291 12.029-4.317 12.058-0.013 0.013-0.698-0.218-1.523-0.515l-1.504-0.538-0.010-5.37-0.006-5.366 0.435-1.219c0.243-0.672 0.451-1.254 0.464-1.296 0.016-0.038 0.038-0.070 0.051-0.070 0.016 0 1.462 0.515 3.219 1.142z"></path>
<path d="M15.546 9.939c-0.333 0.061-0.806 0.214-1.008 0.333-0.237 0.134-0.282 0.218-0.278 0.499 0.003 0.259 0.054 0.416 0.144 0.438 0.032 0.010 0.214-0.058 0.419-0.157 0.451-0.214 0.778-0.301 1.146-0.301 0.355 0 0.573 0.042 0.822 0.157 0.49 0.23 0.746 0.704 0.746 1.379 0 0.525-0.138 0.883-0.448 1.162-0.227 0.205-0.445 0.282-0.899 0.31-0.419 0.029-0.544 0.074-0.605 0.224-0.064 0.15-0.022 1.978 0.045 2.045 0.109 0.109 0.733 0.102 0.845-0.006 0.032-0.035 0.048-0.218 0.061-0.778 0.013-0.48 0.032-0.742 0.054-0.755 0.019-0.013 0.077-0.026 0.128-0.026 0.314 0 0.867-0.23 1.168-0.48 0.656-0.547 0.915-1.69 0.595-2.64-0.253-0.762-0.864-1.258-1.728-1.408-0.339-0.058-0.874-0.058-1.206 0.003z"></path>
<path d="M15.67 16.899c-0.179 0.093-0.227 0.23-0.227 0.621-0.003 0.544 0.128 0.685 0.634 0.688 0.275 0 0.48-0.070 0.554-0.189 0.118-0.189 0.115-0.822-0.006-1.005-0.080-0.125-0.266-0.182-0.57-0.182-0.198 0.003-0.291 0.019-0.384 0.067z"></path>
<path d="M7.52 11.062c-0.122 0.016-0.682 0.157-0.784 0.198-0.211 0.090-0.688 0.339-0.688 0.362 0 0.013-0.016 0.026-0.035 0.026-0.067 0-0.4 0.266-0.502 0.403-0.096 0.122-0.102 0.147-0.086 0.31 0.010 0.096 0.038 0.218 0.064 0.269 0.026 0.048 0.048 0.102 0.048 0.122 0.003 0.064 0.118 0.166 0.179 0.163 0.080-0.006 0.182-0.067 0.298-0.173 0.24-0.227 0.32-0.294 0.352-0.294 0.019 0 0.035-0.010 0.035-0.026 0-0.013 0.026-0.038 0.058-0.054 0.499-0.269 0.838-0.374 1.197-0.371 0.234 0 0.586 0.080 0.669 0.154 0.026 0.022 0.061 0.042 0.070 0.042 0.032 0 0.288 0.259 0.378 0.384 0.192 0.272 0.33 0.768 0.307 1.117-0.019 0.291-0.048 0.454-0.093 0.509-0.019 0.022-0.058 0.080-0.086 0.134-0.080 0.144-0.32 0.384-0.387 0.384-0.016 0-0.032 0.013-0.032 0.032 0 0.016-0.029 0.032-0.064 0.032s-0.064 0.013-0.064 0.026c0 0.013-0.102 0.051-0.224 0.083-0.394 0.099-0.557 0.211-0.573 0.394-0.006 0.102 0.262 1.187 0.326 1.306 0.019 0.035 0.067 0.192 0.106 0.349 0.080 0.314 0.090 0.33 0.205 0.342 0.23 0.026 0.739-0.134 0.781-0.25 0.019-0.048-0.029-0.294-0.202-0.989-0.128-0.525-0.128-0.541 0.061-0.576 0.051-0.013 0.096-0.032 0.096-0.048s0.026-0.029 0.058-0.029c0.029 0 0.090-0.029 0.134-0.064s0.099-0.064 0.122-0.064c0.019 0 0.038-0.013 0.038-0.029s0.026-0.038 0.058-0.048c0.058-0.019 0.39-0.32 0.39-0.355 0-0.013 0.048-0.080 0.109-0.154 0.058-0.074 0.118-0.17 0.131-0.214s0.035-0.096 0.048-0.112c0.022-0.032 0.090-0.294 0.122-0.464 0.019-0.118 0.019-0.634-0.003-0.803-0.019-0.173-0.077-0.39-0.134-0.525-0.022-0.054-0.067-0.16-0.099-0.24s-0.067-0.15-0.077-0.16c-0.010-0.010-0.045-0.074-0.080-0.141-0.067-0.134-0.419-0.506-0.576-0.614-0.125-0.083-0.442-0.237-0.525-0.253-0.038-0.006-0.080-0.022-0.099-0.032-0.077-0.048-0.771-0.086-1.024-0.058z"></path>
<path d="M8.765 17.901c-0.298 0.083-0.467 0.192-0.496 0.323-0.051 0.227-0.003 0.509 0.138 0.803 0.090 0.192 0.176 0.262 0.352 0.285 0.138 0.016 0.608-0.099 0.675-0.166 0.022-0.022 0.054-0.042 0.067-0.042 0.045 0 0.128-0.182 0.131-0.291 0.010-0.266-0.109-0.672-0.246-0.842-0.115-0.141-0.298-0.163-0.621-0.070z"></path>
<path d="M23.098 11.248c-0.006 0.006-0.048 0.019-0.090 0.026-0.102 0.016-0.198 0.058-0.24 0.102-0.054 0.058-0.147 0.259-0.163 0.355-0.074 0.426-0.058 0.442 0.339 0.406 0.294-0.029 0.851-0.029 1.011-0.003 0.144 0.022 0.595 0.189 0.656 0.24 0.026 0.022 0.067 0.042 0.086 0.042 0.022 0 0.038 0.013 0.038 0.032 0 0.016 0.016 0.032 0.035 0.032 0.086 0 0.445 0.442 0.477 0.582 0.003 0.013 0.026 0.086 0.048 0.16 0.067 0.23 0.038 0.611-0.074 0.928-0.118 0.336-0.221 0.506-0.422 0.704-0.227 0.221-0.467 0.32-0.8 0.333-0.227 0.010-0.31-0.003-0.49-0.067-0.122-0.045-0.304-0.086-0.41-0.096-0.285-0.019-0.31 0.013-0.554 0.72-0.314 0.918-0.419 1.254-0.41 1.306 0.016 0.067 0.077 0.122 0.166 0.15 0.045 0.013 0.109 0.042 0.144 0.061 0.099 0.061 0.416 0.125 0.502 0.106 0.058-0.016 0.090-0.058 0.118-0.157 0.022-0.077 0.067-0.182 0.096-0.234 0.032-0.054 0.125-0.291 0.208-0.528 0.086-0.237 0.176-0.448 0.202-0.47 0.035-0.026 0.074-0.029 0.131-0.006 0.17 0.064 0.653 0.096 0.864 0.054 0.243-0.045 0.278-0.051 0.288-0.061 0.003-0.003 0.022-0.010 0.038-0.013 0.019-0.003 0.038-0.013 0.048-0.016s0.026-0.010 0.042-0.013c0.080-0.022 0.294-0.125 0.294-0.144 0-0.010 0.038-0.038 0.090-0.058 0.086-0.042 0.454-0.368 0.454-0.406 0-0.016 0.061-0.099 0.144-0.192 0.048-0.054 0.272-0.496 0.326-0.643 0.042-0.118 0.080-0.272 0.128-0.512 0.026-0.134 0.026-0.653 0-0.768-0.013-0.054-0.029-0.141-0.038-0.192-0.019-0.099-0.067-0.221-0.115-0.304-0.016-0.026-0.038-0.070-0.051-0.096-0.131-0.301-0.707-0.848-0.998-0.95-0.029-0.013-0.074-0.035-0.099-0.058-0.093-0.074-0.627-0.246-0.944-0.304-0.278-0.051-1.040-0.086-1.078-0.048z"></path>
<path d="M21.869 17.882c-0.106 0.010-0.246 0.138-0.285 0.259-0.010 0.035-0.032 0.067-0.045 0.067-0.051 0-0.208 0.65-0.166 0.691 0.010 0.010 0.019 0.032 0.019 0.048 0 0.013 0.045 0.077 0.102 0.134 0.182 0.195 0.704 0.339 0.88 0.243 0.102-0.054 0.208-0.17 0.234-0.256 0.013-0.042 0.038-0.096 0.058-0.118 0.058-0.070 0.144-0.461 0.131-0.579-0.022-0.17-0.17-0.304-0.445-0.403-0.24-0.090-0.32-0.102-0.483-0.086z"></path>
</svg>
