<!-- Generated by IcoMoon.io -->
<svg version="1.1" xmlns="http://www.w3.org/2000/svg" width="32" height="32" viewBox="0 0 32 32">
<title>cards_question_white</title>
<path d="M21.869 17.882c-0.106 0.010-0.246 0.138-0.285 0.259-0.010 0.035-0.032 0.067-0.045 0.067-0.051 0-0.208 0.65-0.166 0.691 0.010 0.010 0.019 0.032 0.019 0.048 0 0.013 0.045 0.077 0.102 0.134 0.182 0.195 0.704 0.339 0.88 0.243 0.102-0.054 0.208-0.17 0.234-0.256 0.013-0.042 0.038-0.096 0.058-0.118 0.058-0.070 0.144-0.461 0.131-0.579-0.022-0.17-0.17-0.304-0.445-0.403-0.24-0.090-0.32-0.102-0.483-0.086z"></path>
</svg>
