<!-- Generated by IcoMoon.io -->
<svg version="1.1" xmlns="http://www.w3.org/2000/svg" width="32" height="32" viewBox="0 0 32 32">
<title>envelope_white</title>
<path d="M4.768 6.144c-0.131 0.035-0.378 0.131-0.544 0.214-0.259 0.128-0.349 0.198-0.624 0.474s-0.346 0.365-0.474 0.624c-0.083 0.166-0.179 0.419-0.214 0.557-0.064 0.25-0.064 0.384-0.064 7.987s0 7.738 0.064 7.987c0.227 0.912 0.954 1.635 1.869 1.869 0.253 0.064 0.339 0.064 11.251 0.064s10.998 0 11.251-0.064c0.922-0.234 1.635-0.947 1.869-1.869 0.064-0.25 0.064-0.346 0.064-7.987 0-7.603 0-7.738-0.064-7.987-0.035-0.138-0.131-0.39-0.214-0.557-0.128-0.259-0.198-0.349-0.474-0.624s-0.365-0.346-0.624-0.474c-0.166-0.083-0.419-0.179-0.557-0.214-0.25-0.064-0.39-0.064-11.264-0.061-10.758 0-11.018 0.003-11.251 0.061zM20.992 13.584c-2.72 2.72-4.944 4.944-4.944 4.944s-2.224-2.224-4.944-4.944l-4.944-4.944h19.776l-4.944 4.944zM14.56 20.662c0.429 0.285 0.842 0.422 1.363 0.448 0.57 0.029 1.085-0.109 1.533-0.406 0.125-0.083 1.795-1.731 4.694-4.63l4.506-4.506v11.792h-21.248v-11.792l4.506 4.499c2.477 2.477 4.566 4.544 4.646 4.595z"></path>
</svg>
