<!-- Generated by IcoMoon.io -->
<svg version="1.1" xmlns="http://www.w3.org/2000/svg" width="32" height="32" viewBox="0 0 32 32">
<title>pointer_down_white</title>
<path d="M1.846 7.981c-1.014 1.027-1.846 1.888-1.846 1.914 0 0.058 15.952 16.006 15.994 15.99 0.016-0.006 3.626-3.59 8.019-7.965 7.088-7.056 7.987-7.962 7.987-8.048s-0.221-0.314-1.853-1.93c-1.021-1.005-1.866-1.83-1.882-1.83-0.013 0-2.774 2.765-6.134 6.144s-6.118 6.144-6.134 6.144c-0.013 0-2.778-2.765-6.147-6.144-3.366-3.379-6.131-6.144-6.141-6.144s-0.848 0.842-1.862 1.869z"></path>
</svg>
