<!-- Generated by IcoMoon.io -->
<svg version="1.1" xmlns="http://www.w3.org/2000/svg" width="32" height="32" viewBox="0 0 32 32">
<title>pointer_up_white</title>
<path d="M7.958 14.074c-6.614 6.614-7.958 7.974-7.958 8.045s0.33 0.416 1.83 1.93c1.405 1.414 1.843 1.84 1.894 1.834 0.038-0.006 2.602-2.554 6.163-6.128 3.354-3.366 6.106-6.118 6.115-6.112 0.013 0.003 2.762 2.762 6.109 6.128 4.422 4.445 6.106 6.118 6.157 6.118s0.595-0.518 1.901-1.811l1.83-1.811v-0.275l-7.971-7.939c-5.571-5.546-7.994-7.939-8.042-7.939s-2.458 2.39-8.029 7.962z"></path>
</svg>
