<!-- Generated by IcoMoon.io -->
<svg version="1.1" xmlns="http://www.w3.org/2000/svg" width="32" height="32" viewBox="0 0 32 32">
<title>school_black</title>
<path d="M14.944 4.95l-0.003 0.122-8.093 5.302v18.714h6.112v-7.52h6.048v7.52h6.144v-18.714l-8.093-5.302v-0.122l-0.003-0.118h-2.112v0.118zM16.72 9.456c1.315 0.272 2.381 1.216 2.826 2.496 0.246 0.723 0.246 1.677 0 2.4-0.387 1.117-1.27 2-2.378 2.378-0.73 0.246-1.67 0.246-2.4 0-1.107-0.378-1.99-1.261-2.378-2.378-0.246-0.723-0.246-1.677 0-2.4 0.182-0.525 0.464-0.989 0.842-1.389 0.598-0.634 1.379-1.034 2.256-1.155 0.288-0.038 0.925-0.016 1.232 0.048z"></path>
<path d="M15.734 10.957c-0.24 0.090-0.435 0.294-0.502 0.531-0.016 0.051-0.032 0.678-0.035 1.389l-0.006 1.293 0.093 0.186c0.064 0.131 0.138 0.218 0.23 0.285l0.141 0.096h2.259l0.138-0.096c0.086-0.061 0.173-0.16 0.227-0.269 0.077-0.144 0.090-0.208 0.090-0.419s-0.013-0.275-0.090-0.419c-0.054-0.109-0.141-0.208-0.227-0.269l-0.138-0.096-1.114-0.019v-0.79c-0.003-0.851-0.016-0.934-0.173-1.142-0.189-0.246-0.602-0.368-0.893-0.259z"></path>
<path d="M1.696 13.811c-0.096 0.026-0.234 0.083-0.307 0.125-0.202 0.118-0.477 0.435-0.563 0.646l-0.074 0.186v13.312l0.070 0.176c0.141 0.342 0.438 0.627 0.797 0.755l0.208 0.077h3.581v-15.328l-1.766 0.003c-1.453 0-1.802 0.010-1.946 0.048z"></path>
<path d="M26.592 21.456v7.664h1.754c1.894 0 1.968-0.006 2.256-0.176 0.304-0.176 0.56-0.528 0.627-0.858 0.026-0.115 0.035-2.118 0.029-6.726l-0.010-6.56-0.077-0.192c-0.058-0.144-0.134-0.25-0.304-0.419s-0.275-0.246-0.419-0.304l-0.192-0.077-3.664-0.016v7.664z"></path>
</svg>
