<?xml version="1.0" standalone="no"?>
<!DOCTYPE svg PUBLIC "-//W3C//DTD SVG 20010904//EN"
 "http://www.w3.org/TR/2001/REC-SVG-20010904/DTD/svg10.dtd">
<svg version="1.0" xmlns="http://www.w3.org/2000/svg"
 width="1000.000000pt" height="1000.000000pt" viewBox="0 0 1000.000000 1000.000000"
 preserveAspectRatio="xMidYMid meet">

<g transform="translate(0.000000,1000.000000) scale(0.100000,-0.100000)"
fill="#000000" stroke="none">
<path d="M4715 9569 c-205 -26 -353 -100 -408 -203 l-22 -41 -3 -1817 -2
-1818 -1623 0 c-1839 0 -1691 7 -1779 -81 -126 -126 -194 -427 -168 -746 23
-287 107 -481 238 -545 l47 -23 1643 -3 1642 -2 0 -1796 c0 -1336 3 -1807 12
-1835 15 -51 66 -103 136 -138 133 -66 298 -93 582 -92 373 0 594 62 680 188
l25 37 3 1818 2 1818 1638 2 1637 3 57 28 c144 71 224 266 244 592 4 63 1 165
-5 238 -21 227 -66 351 -162 449 -95 96 67 88 -1786 88 l-1623 0 0 1808 c0
1796 -1 1807 -21 1852 -52 115 -175 182 -392 214 -116 18 -470 20 -592 5z"/>
</g>
</svg>
