<?xml version="1.0" standalone="no"?>
<!DOCTYPE svg PUBLIC "-//W3C//DTD SVG 20010904//EN"
 "http://www.w3.org/TR/2001/REC-SVG-20010904/DTD/svg10.dtd">
<svg version="1.0" xmlns="http://www.w3.org/2000/svg"
 width="1000.000000pt" height="1000.000000pt" viewBox="0 0 1000.000000 1000.000000"
 preserveAspectRatio="xMidYMid meet">
<metadata>
Created by potrace 1.16, written by Peter Selinger 2001-2019
</metadata>
<g transform="translate(0.000000,1000.000000) scale(0.100000,-0.100000)"
fill="#000000" stroke="none">
<path d="M3505 8366 c-72 -24 -110 -44 -165 -85 -68 -51 -108 -102 -146 -183
l-29 -63 -3 -527 -3 -528 899 0 c708 0 902 -3 909 -12 11 -14 20 -50 147 -548
46 -179 122 -478 170 -665 48 -187 125 -488 171 -670 46 -181 91 -355 99 -385
16 -54 96 -372 241 -955 42 -165 84 -329 95 -365 11 -36 54 -200 95 -365 111
-441 381 -1501 429 -1682 19 -70 63 -148 105 -185 93 -82 245 -117 361 -85
284 79 307 88 364 137 20 18 50 54 67 80 26 41 42 53 103 79 154 66 464 154
731 206 39 8 82 17 96 20 19 5 44 -2 90 -26 119 -60 264 -51 489 28 88 31 133
58 176 104 108 118 125 265 58 494 -15 50 -39 137 -54 195 -16 58 -45 168 -65
245 -21 77 -45 172 -54 211 -10 39 -20 75 -24 80 -3 6 -33 116 -66 245 -33
129 -69 268 -80 309 -12 41 -37 136 -57 210 -20 74 -61 225 -91 335 -87 323
-89 330 -148 559 -31 120 -62 237 -70 260 -8 23 -32 113 -55 201 -44 169 -99
377 -149 560 -28 103 -58 215 -196 740 -30 116 -71 269 -91 340 -19 72 -53
198 -75 280 -22 83 -53 202 -70 265 -17 63 -37 138 -44 165 -8 28 -36 133 -63
235 -27 102 -65 246 -85 320 -58 221 -82 274 -150 337 -105 97 -236 126 -382
85 -38 -11 -111 -31 -161 -45 -51 -14 -105 -32 -120 -40 -38 -20 -98 -79 -131
-129 -15 -22 -44 -48 -65 -59 -113 -58 -468 -162 -707 -209 -174 -33 -177 -33
-250 -4 -50 21 -89 28 -161 31 -86 4 -107 1 -220 -30 -69 -19 -133 -38 -142
-42 -16 -6 -18 0 -18 51 0 213 -93 364 -277 452 l-78 37 -555 2 c-441 2 -563
-1 -595 -11z m3221 -1173 c9 -32 22 -78 30 -102 9 -25 24 -81 34 -125 11 -45
44 -173 75 -286 30 -113 79 -299 110 -415 30 -115 69 -259 85 -320 17 -60 55
-202 85 -315 29 -113 70 -266 90 -340 73 -270 104 -387 135 -505 17 -66 40
-151 50 -190 11 -38 35 -128 54 -200 103 -381 142 -529 192 -720 31 -115 69
-259 86 -320 58 -208 66 -241 126 -475 34 -130 67 -256 75 -280 55 -166 58
-197 20 -206 -16 -3 -109 -28 -208 -56 -99 -27 -231 -62 -292 -78 -62 -16
-154 -41 -204 -55 -50 -14 -92 -25 -94 -23 -5 8 -44 149 -111 413 -41 160 -88
333 -104 385 -16 52 -32 109 -36 125 -18 82 -127 495 -139 530 -13 35 -99 367
-141 540 -8 33 -19 70 -24 83 -9 20 -117 433 -154 588 -7 27 -15 55 -18 60 -4
5 -30 99 -58 209 -70 270 -100 385 -139 520 -11 39 -43 160 -71 270 -28 110
-62 236 -75 280 -13 44 -37 134 -54 200 -17 66 -52 197 -77 290 -82 302 -93
349 -89 353 2 2 45 14 97 27 51 13 127 33 168 45 41 12 165 45 275 74 110 30
216 58 235 64 19 6 38 11 42 11 4 1 15 -25 24 -56z"/>
<path d="M1258 8360 c-60 -10 -156 -54 -164 -75 -3 -8 -12 -15 -19 -15 -21 0
-112 -106 -125 -145 -6 -19 -15 -35 -20 -35 -5 0 -15 -26 -22 -57 -10 -44 -13
-179 -13 -553 l0 -495 918 -3 918 -2 -3 522 -3 523 -44 88 c-24 48 -47 87 -52
87 -5 0 -9 6 -9 13 0 21 -67 69 -155 113 l-80 39 -540 2 c-297 0 -561 -3 -587
-7z"/>
<path d="M895 6538 c-3 -7 -4 -832 -3 -1833 l3 -1820 918 -3 917 -2 0 1835 0
1835 -915 0 c-723 0 -917 -3 -920 -12z"/>
<path d="M3172 6538 c-9 -9 -12 -425 -12 -1830 l0 -1818 23 -5 c12 -3 425 -4
917 -3 l895 3 5 1340 c3 737 3 1561 0 1830 l-5 490 -905 3 c-696 2 -909 -1
-918 -10z"/>
<path d="M895 2427 c-4 -13 -5 -237 -3 -498 3 -365 7 -487 18 -529 8 -30 16
-57 19 -60 4 -3 17 -27 30 -53 27 -53 123 -147 180 -177 92 -46 140 -50 680
-50 417 0 517 3 564 15 76 20 134 50 164 86 14 16 33 29 43 29 10 0 23 12 29
28 6 15 27 48 46 73 63 83 65 105 65 661 l0 498 -915 0 -915 0 -5 -23z"/>
<path d="M3167 2443 c-4 -3 -7 -222 -7 -486 0 -483 1 -501 37 -584 7 -17 13
-37 13 -45 0 -41 140 -198 176 -198 8 0 14 -3 14 -8 0 -4 39 -20 88 -35 l87
-28 535 3 535 3 80 35 c62 27 95 50 148 101 37 37 67 75 67 86 0 10 7 28 15
40 41 58 45 116 45 630 l0 493 -913 0 c-503 0 -917 -3 -920 -7z"/>
</g>
</svg>
