<?xml version="1.0" standalone="no"?>
<!DOCTYPE svg PUBLIC "-//W3C//DTD SVG 20010904//EN"
 "http://www.w3.org/TR/2001/REC-SVG-20010904/DTD/svg10.dtd">
<svg version="1.0" xmlns="http://www.w3.org/2000/svg"
 width="1000.000000pt" height="1000.000000pt" viewBox="0 0 1000.000000 1000.000000"
 preserveAspectRatio="xMidYMid meet">
<metadata>
Created by potrace 1.16, written by Peter Selinger 2001-2019
</metadata>
<g transform="translate(0.000000,1000.000000) scale(0.100000,-0.100000)"
fill="#000000" stroke="none">
<path d="M577 7506 c-317 -321 -577 -590 -577 -598 0 -18 4985 -5002 4998
-4997 5 2 1133 1122 2506 2489 2215 2205 2496 2488 2496 2515 0 27 -69 98
-579 603 -319 314 -583 572 -588 572 -4 0 -867 -864 -1917 -1920 -1050 -1056
-1912 -1920 -1917 -1920 -4 0 -868 864 -1921 1920 -1052 1056 -1916 1920
-1919 1920 -3 0 -265 -263 -582 -584z"/>
</g>
</svg>
