<?xml version="1.0" standalone="no"?>
<!DOCTYPE svg PUBLIC "-//W3C//DTD SVG 20010904//EN"
 "http://www.w3.org/TR/2001/REC-SVG-20010904/DTD/svg10.dtd">
<svg version="1.0" xmlns="http://www.w3.org/2000/svg"
 width="1000.000000pt" height="1000.000000pt" viewBox="0 0 1000.000000 1000.000000"
 preserveAspectRatio="xMidYMid meet">

<g transform="translate(0.000000,1000.000000) scale(0.100000,-0.100000)"
fill="#000000" stroke="none">
<path d="M4406 7501 c-1369 -1369 -2487 -2493 -2485 -2499 2 -6 1121 -1133
2487 -2505 1941 -1950 2489 -2495 2507 -2494 19 0 153 129 595 577 313 318
570 582 570 587 0 5 -864 868 -1920 1918 -1056 1050 -1920 1911 -1920 1914 -1
3 864 869 1922 1924 l1923 1917 -580 575 c-319 316 -587 574 -595 575 -8 0
-1135 -1120 -2504 -2489z"/>
</g>
</svg>
