<?xml version="1.0" standalone="no"?>
<!DOCTYPE svg PUBLIC "-//W3C//DTD SVG 20010904//EN"
 "http://www.w3.org/TR/2001/REC-SVG-20010904/DTD/svg10.dtd">
<svg version="1.0" xmlns="http://www.w3.org/2000/svg"
 width="1000.000000pt" height="1000.000000pt" viewBox="0 0 1000.000000 1000.000000"
 preserveAspectRatio="xMidYMid meet">
<metadata>
Created by potrace 1.16, written by Peter Selinger 2001-2019
</metadata>
<g transform="translate(0.000000,1000.000000) scale(0.100000,-0.100000)"
fill="#000000" stroke="none">
<path d="M2487 5602 c-2067 -2067 -2487 -2492 -2487 -2514 0 -22 103 -130 572
-603 439 -442 576 -575 592 -573 12 2 813 798 1926 1915 1048 1052 1908 1912
1911 1910 4 -1 863 -863 1909 -1915 1382 -1389 1908 -1912 1924 -1912 16 0
186 162 594 566 l572 566 0 43 0 43 -2491 2481 c-1741 1733 -2498 2481 -2513
2481 -15 0 -768 -747 -2509 -2488z"/>
</g>
</svg>
