<?xml version="1.0" standalone="no"?>
<!DOCTYPE svg PUBLIC "-//W3C//DTD SVG 20010904//EN"
 "http://www.w3.org/TR/2001/REC-SVG-20010904/DTD/svg10.dtd">
<svg version="1.0" xmlns="http://www.w3.org/2000/svg"
 width="1000.000000pt" height="1000.000000pt" viewBox="0 0 1000.000000 1000.000000"
 preserveAspectRatio="xMidYMid meet">

<g transform="translate(0.000000,1000.000000) scale(0.100000,-0.100000)"
fill="#000000" stroke="none">
<path d="M4670 8453 l-1 -38 -1264 -829 -1265 -828 0 -2924 0 -2924 955 0 955
0 0 1175 0 1175 945 0 945 0 0 -1175 0 -1175 960 0 960 0 0 2924 0 2924 -1264
828 -1265 829 0 38 -1 37 -330 0 -330 0 0 -37z m555 -1408 c411 -85 744 -380
883 -780 77 -226 77 -524 0 -750 -121 -349 -397 -625 -743 -743 -228 -77 -522
-77 -750 0 -346 118 -622 394 -743 743 -77 226 -77 524 0 750 57 164 145 309
263 434 187 198 431 323 705 361 90 12 289 5 385 -15z"/>
<path d="M4917 6576 c-75 -28 -136 -92 -157 -166 -5 -16 -10 -212 -11 -434
l-2 -404 29 -58 c20 -41 43 -68 72 -89 l44 -30 353 0 353 0 43 30 c27 19 54
50 71 84 24 45 28 65 28 131 0 66 -4 86 -28 131 -17 34 -44 65 -71 84 l-43 30
-174 3 -174 3 0 247 c-1 266 -5 292 -54 357 -59 77 -188 115 -279 81z"/>
<path d="M530 5684 c-30 -8 -73 -26 -96 -39 -63 -37 -149 -136 -176 -202 l-23
-58 0 -2080 0 -2080 22 -55 c44 -107 137 -196 249 -236 l65 -24 559 0 560 0 0
2395 0 2395 -552 -1 c-454 0 -563 -3 -608 -15z"/>
<path d="M8310 3295 l0 -2395 548 0 c592 0 615 2 705 55 95 55 175 165 196
268 8 36 11 662 9 2102 l-3 2050 -24 60 c-18 45 -42 78 -95 131 -53 53 -86 77
-131 95 l-60 24 -572 3 -573 2 0 -2395z"/>
</g>
</svg>
